<svg xmlns="http://www.w3.org/2000/svg" viewBox="0 0 156.29 179.32"><defs><style>.cls-1{fill:none;stroke:#fff;stroke-miterlimit:10;stroke-width:17px;}</style></defs><g id="Layer_2" data-name="Layer 2"><g id="Layer_1-2" data-name="Layer 1"><g id="Layer_1-2-2" data-name="Layer 1-2"><path class="cls-1" d="M78.48,8.54h29.63c5,0,5.76.83,5.77,5.88V70.33c0,5.7.89,6.6,6.45,6.61H141.2c2.28,0,4.87-.65,6.18,2.19s-.83,4.46-2.19,6.26q-21.72,28.53-43.53,57c-6.33,8.29-12.62,16.6-19,24.86C79,172,77.3,172,73.75,167.36Q42.09,125.95,10.47,84.51C9.2,82.84,7.69,81.28,9,78.92c1.17-2.09,3.11-2,5.09-2H35.8c5.67,0,6.6-.91,6.6-6.44V15c0-5.92.57-6.48,6.41-6.49H78.44Z"/></g></g></g></svg>