<svg xmlns="http://www.w3.org/2000/svg" viewBox="0 0 925.72 268"><defs><style>.cls-1{fill:#01a552;}.cls-2,.cls-3{fill:#e2e3e4;}.cls-3{font-size:146px;font-family:Roboto-Bold, Roboto;font-weight:700;}</style></defs><g id="Layer_2" data-name="Layer 2"><g id="Layer_1-2" data-name="Layer 1"><rect class="cls-1" width="925.72" height="268" rx="73.78"/><path class="cls-2" d="M795.42,55.5c9.88,0,19.75,0,29.63,0,5,0,5.76.83,5.77,5.88q0,28,0,55.91c0,5.7.89,6.6,6.45,6.61,7,0,13.91,0,20.87,0,2.28,0,4.87-.65,6.18,2.19s-.83,4.46-2.19,6.26q-21.72,28.53-43.53,57c-6.33,8.29-12.62,16.6-19,24.86-3.63,4.72-5.36,4.75-8.91.11q-31.66-41.41-63.28-82.85c-1.27-1.67-2.78-3.23-1.46-5.59,1.17-2.09,3.11-2,5.09-2q10.86,0,21.7,0c5.67,0,6.6-.91,6.6-6.44q0-27.75,0-55.49c0-5.92.57-6.48,6.41-6.49q14.82,0,29.63,0Z"/><text class="cls-3" transform="translate(44.72 192.75)">Download</text></g></g></svg>